<svg width="512" height="512" version="1.1" xmlns="http://www.w3.org/2000/svg" desc="Created with imagetracer.js version 1.2.6" ><path fill="rgb(253,253,253)" stroke="rgb(253,253,253)" stroke-width="1" opacity="1" d="M 254.5 18 L 265.5 20 L 283 30.5 L 283 223.5 L 285 227 L 288.5 229 L 465 229 L 465 282.5 L 464.5 283 L 288.5 283 L 285 285 L 283 288.5 L 283 481.5 L 281.5 483 L 265.5 492 L 254.5 494 L 246.5 492 L 229 481.5 L 229 288.5 L 227 285 L 223.5 283 L 47 283 L 47 229 L 82.5 229 Q 87.8 226.4 88 220 L 103.5 220 L 104 221.5 L 108.5 228 L 110.5 229 L 223.5 229 L 227 227 L 229 223.5 L 229 30.5 L 230.5 29 L 246.5 20 L 254.5 18 Z M 252 235 L 245 238 Q 237 242 235 252 Q 234 262 238 268 Q 242 275 252 277 Q 262 278 268 274 Q 275 270 277 261 Q 278 250 274 245 Q 269 234 252 235 Z " /><path fill="rgb(93,14,22)" stroke="rgb(93,14,22)" stroke-width="1" opacity="1" d="M 317.5 49 L 318.5 51 L 317.5 49 Z " /><path fill="rgb(93,14,22)" stroke="rgb(93,14,22)" stroke-width="1" opacity="1" d="M 324.5 53 L 325.5 55 L 324.5 53 Z " /><path fill="rgb(93,14,22)" stroke="rgb(93,14,22)" stroke-width="1" opacity="1" d="M 343.5 64 L 344.5 66 L 343.5 64 Z " /><path fill="rgb(93,14,22)" stroke="rgb(93,14,22)" stroke-width="1" opacity="1" d="M 350.5 68 L 351.5 70 L 350.5 68 Z " /><path fill="rgb(93,14,22)" stroke="rgb(93,14,22)" stroke-width="1" opacity="1" d="M 369.5 79 L 370.5 81 L 369.5 79 Z " /><path fill="rgb(93,14,22)" stroke="rgb(93,14,22)" stroke-width="1" opacity="1" d="M 376.5 83 L 377.5 85 L 376.5 83 Z " /><path fill="rgb(93,14,22)" stroke="rgb(93,14,22)" stroke-width="1" opacity="1" d="M 395.5 94 L 396.5 96 L 395.5 94 Z " /><path fill="rgb(93,14,22)" stroke="rgb(93,14,22)" stroke-width="1" opacity="1" d="M 402.5 98 L 403.5 100 L 402.5 98 Z " /><path fill="rgb(93,14,22)" stroke="rgb(93,14,22)" stroke-width="1" opacity="1" d="M 421.5 109 L 422.5 111 L 421.5 109 Z " /><path fill="rgb(93,14,22)" stroke="rgb(93,14,22)" stroke-width="1" opacity="1" d="M 428.5 113 L 429.5 115 L 428.5 113 Z " /><path fill="rgb(93,14,22)" stroke="rgb(93,14,22)" stroke-width="1" opacity="1" d="M 447.5 124 L 448.5 126 L 447.5 124 Z " /><path fill="rgb(93,14,22)" stroke="rgb(93,14,22)" stroke-width="1" opacity="1" d="M 455.5 129 L 460.5 135 L 455.5 129 Z " /><path fill="rgb(93,14,22)" stroke="rgb(93,14,22)" stroke-width="1" opacity="1" d="M 462.5 138 L 464 140.5 L 463 140.5 L 462.5 138 Z " /><path fill="rgb(93,14,22)" stroke="rgb(93,14,22)" stroke-width="1" opacity="1" d="M 465.5 148 L 466 210.5 L 465 210.5 L 465.5 148 Z " /><path fill="rgb(93,14,22)" stroke="rgb(93,14,22)" stroke-width="1" opacity="1" d="M 46.5 301 L 47 364.5 L 46 364.5 L 46.5 301 Z " /><path fill="rgb(93,14,22)" stroke="rgb(93,14,22)" stroke-width="1" opacity="1" d="M 51.5 377 L 56.5 383 L 51.5 377 Z " /><path fill="rgb(93,14,22)" stroke="rgb(93,14,22)" stroke-width="1" opacity="1" d="M 63.5 386 L 64.5 388 L 63.5 386 Z " /><path fill="rgb(93,14,22)" stroke="rgb(93,14,22)" stroke-width="1" opacity="1" d="M 82.5 397 L 83.5 399 L 82.5 397 Z " /><path fill="rgb(93,14,22)" stroke="rgb(93,14,22)" stroke-width="1" opacity="1" d="M 89.5 401 L 90.5 403 L 89.5 401 Z " /><path fill="rgb(93,14,22)" stroke="rgb(93,14,22)" stroke-width="1" opacity="1" d="M 108.5 412 L 109.5 414 L 108.5 412 Z " /><path fill="rgb(93,14,22)" stroke="rgb(93,14,22)" stroke-width="1" opacity="1" d="M 115.5 416 L 116.5 418 L 115.5 416 Z " /><path fill="rgb(93,14,22)" stroke="rgb(93,14,22)" stroke-width="1" opacity="1" d="M 134.5 427 L 135.5 429 L 134.5 427 Z " /><path fill="rgb(93,14,22)" stroke="rgb(93,14,22)" stroke-width="1" opacity="1" d="M 141.5 431 L 142.5 433 L 141.5 431 Z " /><path fill="rgb(93,14,22)" stroke="rgb(93,14,22)" stroke-width="1" opacity="1" d="M 160.5 442 L 161.5 444 L 160.5 442 Z " /><path fill="rgb(93,14,22)" stroke="rgb(93,14,22)" stroke-width="1" opacity="1" d="M 167.5 446 L 168.5 448 L 167.5 446 Z " /><path fill="rgb(93,14,22)" stroke="rgb(93,14,22)" stroke-width="1" opacity="1" d="M 186.5 457 L 187.5 459 L 186.5 457 Z " /><path fill="rgb(93,14,22)" stroke="rgb(93,14,22)" stroke-width="1" opacity="1" d="M 193.5 461 L 194.5 463 L 193.5 461 Z " /><path fill="rgb(0,0,0)" stroke="rgb(0,0,0)" stroke-width="1" opacity="0.30196078431372547" d="M 248.5 0 L 251 0.5 L 248.5 1 L 248.5 0 Z " /><path fill="rgb(0,0,0)" stroke="rgb(0,0,0)" stroke-width="1" opacity="0.30196078431372547" d="M 261.5 0 L 264 0.5 L 261.5 1 L 261.5 0 Z " /><path fill="rgb(0,0,0)" stroke="rgb(0,0,0)" stroke-width="1" opacity="0.30196078431372547" d="M 277.5 5 L 278.5 7 L 277.5 5 Z " /><path fill="rgb(0,0,0)" stroke="rgb(0,0,0)" stroke-width="1" opacity="0.30196078431372547" d="M 284.5 9 L 285.5 11 L 284.5 9 Z " /><path fill="rgb(0,0,0)" stroke="rgb(0,0,0)" stroke-width="1" opacity="0.30196078431372547" d="M 220.5 13 L 219.5 15 L 220.5 13 Z " /><path fill="rgb(0,0,0)" stroke="rgb(0,0,0)" stroke-width="1" opacity="0.30196078431372547" d="M 291.5 13 L 292.5 15 L 291.5 13 Z " /><path fill="rgb(0,0,0)" stroke="rgb(0,0,0)" stroke-width="1" opacity="0.30196078431372547" d="M 213.5 17 L 212.5 19 L 213.5 17 Z " /><path fill="rgb(0,0,0)" stroke="rgb(0,0,0)" stroke-width="1" opacity="0.30196078431372547" d="M 303.5 20 L 304.5 22 L 303.5 20 Z " /><path fill="rgb(0,0,0)" stroke="rgb(0,0,0)" stroke-width="1" opacity="0.30196078431372547" d="M 201.5 24 L 200.5 26 L 201.5 24 Z " /><path fill="rgb(0,0,0)" stroke="rgb(0,0,0)" stroke-width="1" opacity="0.30196078431372547" d="M 310.5 24 L 311.5 26 L 310.5 24 Z " /><path fill="rgb(0,0,0)" stroke="rgb(0,0,0)" stroke-width="1" opacity="0.30196078431372547" d="M 194.5 28 L 193.5 30 L 194.5 28 Z " /><path fill="rgb(0,0,0)" stroke="rgb(0,0,0)" stroke-width="1" opacity="0.30196078431372547" d="M 317.5 28 L 318.5 30 L 317.5 28 Z " /><path fill="rgb(0,0,0)" stroke="rgb(0,0,0)" stroke-width="1" opacity="0.30196078431372547" d="M 187.5 32 L 186.5 34 L 187.5 32 Z " /><path fill="rgb(0,0,0)" stroke="rgb(0,0,0)" stroke-width="1" opacity="0.30196078431372547" d="M 329.5 35 L 330.5 37 L 329.5 35 Z " /><path fill="rgb(0,0,0)" stroke="rgb(0,0,0)" stroke-width="1" opacity="0.30196078431372547" d="M 175.5 39 L 174.5 41 L 175.5 39 Z " /><path fill="rgb(0,0,0)" stroke="rgb(0,0,0)" stroke-width="1" opacity="0.30196078431372547" d="M 336.5 39 L 337.5 41 L 336.5 39 Z " /><path fill="rgb(0,0,0)" stroke="rgb(0,0,0)" stroke-width="1" opacity="0.30196078431372547" d="M 168.5 43 L 167.5 45 L 168.5 43 Z " /><path fill="rgb(0,0,0)" stroke="rgb(0,0,0)" stroke-width="1" opacity="0.30196078431372547" d="M 343.5 43 L 344.5 45 L 343.5 43 Z " /><path fill="rgb(0,0,0)" stroke="rgb(0,0,0)" stroke-width="1" opacity="0.30196078431372547" d="M 355.5 50 L 356.5 52 L 355.5 50 Z " /><path fill="rgb(0,0,0)" stroke="rgb(0,0,0)" stroke-width="1" opacity="0.30196078431372547" d="M 149.5 54 L 148.5 56 L 149.5 54 Z " /><path fill="rgb(0,0,0)" stroke="rgb(0,0,0)" stroke-width="1" opacity="0.30196078431372547" d="M 362.5 54 L 363.5 56 L 362.5 54 Z " /><path fill="rgb(0,0,0)" stroke="rgb(0,0,0)" stroke-width="1" opacity="0.30196078431372547" d="M 142.5 58 L 141.5 60 L 142.5 58 Z " /><path fill="rgb(0,0,0)" stroke="rgb(0,0,0)" stroke-width="1" opacity="0.30196078431372547" d="M 369.5 58 L 370.5 60 L 369.5 58 Z " /><path fill="rgb(0,0,0)" stroke="rgb(0,0,0)" stroke-width="1" opacity="0.30196078431372547" d="M 130.5 65 L 129.5 67 L 130.5 65 Z " /><path fill="rgb(0,0,0)" stroke="rgb(0,0,0)" stroke-width="1" opacity="0.30196078431372547" d="M 381.5 65 L 382.5 67 L 381.5 65 Z " /><path fill="rgb(0,0,0)" stroke="rgb(0,0,0)" stroke-width="1" opacity="0.30196078431372547" d="M 123.5 69 L 122.5 71 L 123.5 69 Z " /><path fill="rgb(0,0,0)" stroke="rgb(0,0,0)" stroke-width="1" opacity="0.30196078431372547" d="M 388.5 69 L 389.5 71 L 388.5 69 Z " /><path fill="rgb(0,0,0)" stroke="rgb(0,0,0)" stroke-width="1" opacity="0.30196078431372547" d="M 116.5 73 L 115.5 75 L 116.5 73 Z " /><path fill="rgb(0,0,0)" stroke="rgb(0,0,0)" stroke-width="1" opacity="0.30196078431372547" d="M 104.5 80 L 103.5 82 L 104.5 80 Z " /><path fill="rgb(0,0,0)" stroke="rgb(0,0,0)" stroke-width="1" opacity="0.30196078431372547" d="M 407.5 80 L 408.5 82 L 407.5 80 Z " /><path fill="rgb(0,0,0)" stroke="rgb(0,0,0)" stroke-width="1" opacity="0.30196078431372547" d="M 97.5 84 L 96.5 86 L 97.5 84 Z " /><path fill="rgb(0,0,0)" stroke="rgb(0,0,0)" stroke-width="1" opacity="0.30196078431372547" d="M 414.5 84 L 415.5 86 L 414.5 84 Z " /><path fill="rgb(0,0,0)" stroke="rgb(0,0,0)" stroke-width="1" opacity="0.30196078431372547" d="M 78.5 95 L 77.5 97 L 78.5 95 Z " /><path fill="rgb(0,0,0)" stroke="rgb(0,0,0)" stroke-width="1" opacity="0.30196078431372547" d="M 433.5 95 L 434.5 97 L 433.5 95 Z " /><path fill="rgb(0,0,0)" stroke="rgb(0,0,0)" stroke-width="1" opacity="0.30196078431372547" d="M 71.5 99 L 70.5 101 L 71.5 99 Z " /><path fill="rgb(0,0,0)" stroke="rgb(0,0,0)" stroke-width="1" opacity="0.30196078431372547" d="M 440.5 99 L 441.5 101 L 440.5 99 Z " /><path fill="rgb(0,0,0)" stroke="rgb(0,0,0)" stroke-width="1" opacity="0.30196078431372547" d="M 59.5 106 L 58.5 108 L 59.5 106 Z " /><path fill="rgb(0,0,0)" stroke="rgb(0,0,0)" stroke-width="1" opacity="0.30196078431372547" d="M 52.5 110 L 51.5 112 L 52.5 110 Z " /><path fill="rgb(0,0,0)" stroke="rgb(0,0,0)" stroke-width="1" opacity="0.30196078431372547" d="M 459.5 110 L 460.5 112 L 459.5 110 Z " /><path fill="rgb(0,0,0)" stroke="rgb(0,0,0)" stroke-width="1" opacity="0.30196078431372547" d="M 47.5 113 L 45.5 116 L 47.5 113 Z " /><path fill="rgb(0,0,0)" stroke="rgb(0,0,0)" stroke-width="1" opacity="0.30196078431372547" d="M 464.5 113 L 466.5 116 L 464.5 113 Z " /><path fill="rgb(0,0,0)" stroke="rgb(0,0,0)" stroke-width="1" opacity="0.30196078431372547" d="M 469.5 117 L 472.5 121 L 469.5 117 Z " /><path fill="rgb(0,0,0)" stroke="rgb(0,0,0)" stroke-width="1" opacity="0.30196078431372547" d="M 41.5 118 L 40.5 120 L 41.5 118 Z " /><path fill="rgb(0,0,0)" stroke="rgb(0,0,0)" stroke-width="1" opacity="0.30196078431372547" d="M 37.5 123 L 36.5 125 L 37.5 123 Z " /><path fill="rgb(0,0,0)" stroke="rgb(0,0,0)" stroke-width="1" opacity="0.30196078431372547" d="M 474.5 123 L 475.5 125 L 474.5 123 Z " /><path fill="rgb(0,0,0)" stroke="rgb(0,0,0)" stroke-width="1" opacity="0.30196078431372547" d="M 482.5 139 L 483 141.5 L 482 141.5 L 482.5 139 Z " /><path fill="rgb(0,0,0)" stroke="rgb(0,0,0)" stroke-width="1" opacity="0.30196078431372547" d="M 483.5 145 L 484 367.5 L 483 367.5 L 483.5 145 Z " /><path fill="rgb(0,0,0)" stroke="rgb(0,0,0)" stroke-width="1" opacity="0.30196078431372547" d="M 28.5 146 L 29 366.5 L 28 366.5 L 28.5 146 Z " /><path fill="rgb(0,0,0)" stroke="rgb(0,0,0)" stroke-width="1" opacity="0.30196078431372547" d="M 36.5 387 L 37.5 389 L 36.5 387 Z " /><path fill="rgb(0,0,0)" stroke="rgb(0,0,0)" stroke-width="1" opacity="0.30196078431372547" d="M 475.5 387 L 474.5 389 L 475.5 387 Z " /><path fill="rgb(0,0,0)" stroke="rgb(0,0,0)" stroke-width="1" opacity="0.30196078431372547" d="M 472.5 391 L 469.5 395 L 472.5 391 Z " /><path fill="rgb(0,0,0)" stroke="rgb(0,0,0)" stroke-width="1" opacity="0.30196078431372547" d="M 40.5 392 L 43.5 396 L 40.5 392 Z " /><path fill="rgb(0,0,0)" stroke="rgb(0,0,0)" stroke-width="1" opacity="0.30196078431372547" d="M 466.5 396 L 465.5 398 L 466.5 396 Z " /><path fill="rgb(0,0,0)" stroke="rgb(0,0,0)" stroke-width="1" opacity="0.30196078431372547" d="M 46.5 397 L 47.5 399 L 46.5 397 Z " /><path fill="rgb(0,0,0)" stroke="rgb(0,0,0)" stroke-width="1" opacity="0.30196078431372547" d="M 51.5 400 L 52.5 402 L 51.5 400 Z " /><path fill="rgb(0,0,0)" stroke="rgb(0,0,0)" stroke-width="1" opacity="0.30196078431372547" d="M 460.5 400 L 459.5 402 L 460.5 400 Z " /><path fill="rgb(0,0,0)" stroke="rgb(0,0,0)" stroke-width="1" opacity="0.30196078431372547" d="M 453.5 404 L 452.5 406 L 453.5 404 Z " /><path fill="rgb(0,0,0)" stroke="rgb(0,0,0)" stroke-width="1" opacity="0.30196078431372547" d="M 70.5 411 L 71.5 413 L 70.5 411 Z " /><path fill="rgb(0,0,0)" stroke="rgb(0,0,0)" stroke-width="1" opacity="0.30196078431372547" d="M 441.5 411 L 440.5 413 L 441.5 411 Z " /><path fill="rgb(0,0,0)" stroke="rgb(0,0,0)" stroke-width="1" opacity="0.30196078431372547" d="M 77.5 415 L 78.5 417 L 77.5 415 Z " /><path fill="rgb(0,0,0)" stroke="rgb(0,0,0)" stroke-width="1" opacity="0.30196078431372547" d="M 434.5 415 L 433.5 417 L 434.5 415 Z " /><path fill="rgb(0,0,0)" stroke="rgb(0,0,0)" stroke-width="1" opacity="0.30196078431372547" d="M 427.5 419 L 426.5 421 L 427.5 419 Z " /><path fill="rgb(0,0,0)" stroke="rgb(0,0,0)" stroke-width="1" opacity="0.30196078431372547" d="M 96.5 426 L 97.5 428 L 96.5 426 Z " /><path fill="rgb(0,0,0)" stroke="rgb(0,0,0)" stroke-width="1" opacity="0.30196078431372547" d="M 415.5 426 L 414.5 428 L 415.5 426 Z " /><path fill="rgb(0,0,0)" stroke="rgb(0,0,0)" stroke-width="1" opacity="0.30196078431372547" d="M 103.5 430 L 104.5 432 L 103.5 430 Z " /><path fill="rgb(0,0,0)" stroke="rgb(0,0,0)" stroke-width="1" opacity="0.30196078431372547" d="M 408.5 430 L 407.5 432 L 408.5 430 Z " /><path fill="rgb(0,0,0)" stroke="rgb(0,0,0)" stroke-width="1" opacity="0.30196078431372547" d="M 122.5 441 L 123.5 443 L 122.5 441 Z " /><path fill="rgb(0,0,0)" stroke="rgb(0,0,0)" stroke-width="1" opacity="0.30196078431372547" d="M 389.5 441 L 388.5 443 L 389.5 441 Z " /><path fill="rgb(0,0,0)" stroke="rgb(0,0,0)" stroke-width="1" opacity="0.30196078431372547" d="M 129.5 445 L 130.5 447 L 129.5 445 Z " /><path fill="rgb(0,0,0)" stroke="rgb(0,0,0)" stroke-width="1" opacity="0.30196078431372547" d="M 382.5 445 L 381.5 447 L 382.5 445 Z " /><path fill="rgb(0,0,0)" stroke="rgb(0,0,0)" stroke-width="1" opacity="0.30196078431372547" d="M 141.5 452 L 142.5 454 L 141.5 452 Z " /><path fill="rgb(0,0,0)" stroke="rgb(0,0,0)" stroke-width="1" opacity="0.30196078431372547" d="M 370.5 452 L 369.5 454 L 370.5 452 Z " /><path fill="rgb(0,0,0)" stroke="rgb(0,0,0)" stroke-width="1" opacity="0.30196078431372547" d="M 148.5 456 L 149.5 458 L 148.5 456 Z " /><path fill="rgb(0,0,0)" stroke="rgb(0,0,0)" stroke-width="1" opacity="0.30196078431372547" d="M 363.5 456 L 362.5 458 L 363.5 456 Z " /><path fill="rgb(0,0,0)" stroke="rgb(0,0,0)" stroke-width="1" opacity="0.30196078431372547" d="M 155.5 460 L 156.5 462 L 155.5 460 Z " /><path fill="rgb(0,0,0)" stroke="rgb(0,0,0)" stroke-width="1" opacity="0.30196078431372547" d="M 356.5 460 L 355.5 462 L 356.5 460 Z " /><path fill="rgb(0,0,0)" stroke="rgb(0,0,0)" stroke-width="1" opacity="0.30196078431372547" d="M 167.5 467 L 168.5 469 L 167.5 467 Z " /><path fill="rgb(0,0,0)" stroke="rgb(0,0,0)" stroke-width="1" opacity="0.30196078431372547" d="M 344.5 467 L 343.5 469 L 344.5 467 Z " /><path fill="rgb(0,0,0)" stroke="rgb(0,0,0)" stroke-width="1" opacity="0.30196078431372547" d="M 174.5 471 L 175.5 473 L 174.5 471 Z " /><path fill="rgb(0,0,0)" stroke="rgb(0,0,0)" stroke-width="1" opacity="0.30196078431372547" d="M 337.5 471 L 336.5 473 L 337.5 471 Z " /><path fill="rgb(0,0,0)" stroke="rgb(0,0,0)" stroke-width="1" opacity="0.30196078431372547" d="M 181.5 475 L 182.5 477 L 181.5 475 Z " /><path fill="rgb(0,0,0)" stroke="rgb(0,0,0)" stroke-width="1" opacity="0.30196078431372547" d="M 193.5 482 L 194.5 484 L 193.5 482 Z " /><path fill="rgb(0,0,0)" stroke="rgb(0,0,0)" stroke-width="1" opacity="0.30196078431372547" d="M 318.5 482 L 317.5 484 L 318.5 482 Z " /><path fill="rgb(0,0,0)" stroke="rgb(0,0,0)" stroke-width="1" opacity="0.30196078431372547" d="M 200.5 486 L 201.5 488 L 200.5 486 Z " /><path fill="rgb(0,0,0)" stroke="rgb(0,0,0)" stroke-width="1" opacity="0.30196078431372547" d="M 311.5 486 L 310.5 488 L 311.5 486 Z " /><path fill="rgb(0,0,0)" stroke="rgb(0,0,0)" stroke-width="1" opacity="0.30196078431372547" d="M 207.5 490 L 208.5 492 L 207.5 490 Z " /><path fill="rgb(0,0,0)" stroke="rgb(0,0,0)" stroke-width="1" opacity="0.30196078431372547" d="M 299.5 493 L 298.5 495 L 299.5 493 Z " /><path fill="rgb(0,0,0)" stroke="rgb(0,0,0)" stroke-width="1" opacity="0.30196078431372547" d="M 219.5 497 L 220.5 499 L 219.5 497 Z " /><path fill="rgb(0,0,0)" stroke="rgb(0,0,0)" stroke-width="1" opacity="0.30196078431372547" d="M 292.5 497 L 291.5 499 L 292.5 497 Z " /><path fill="rgb(0,0,0)" stroke="rgb(0,0,0)" stroke-width="1" opacity="0.30196078431372547" d="M 226.5 501 L 227.5 503 L 226.5 501 Z " /><path fill="rgb(0,0,0)" stroke="rgb(0,0,0)" stroke-width="1" opacity="0.30196078431372547" d="M 233.5 505 L 234.5 507 L 233.5 505 Z " /><path fill="rgb(0,0,0)" stroke="rgb(0,0,0)" stroke-width="1" opacity="0.30196078431372547" d="M 248.5 511 L 251 511.5 L 248.5 512 L 248.5 511 Z " /><path fill="rgb(0,0,0)" stroke="rgb(0,0,0)" stroke-width="1" opacity="0.30196078431372547" d="M 261.5 511 L 264 511.5 L 261.5 512 L 261.5 511 Z " /><path fill="rgb(44,142,73)" stroke="rgb(44,142,73)" stroke-width="1" opacity="1" d="M 251.5 18 L 254 18.5 L 251.5 19 L 251.5 18 Z " /><path fill="rgb(44,142,73)" stroke="rgb(44,142,73)" stroke-width="1" opacity="1" d="M 258.5 18 L 261 18.5 L 258.5 19 L 258.5 18 Z " /><path fill="rgb(44,142,73)" stroke="rgb(44,142,73)" stroke-width="1" opacity="1" d="M 272.5 23 L 273.5 25 L 272.5 23 Z " /><path fill="rgb(44,142,73)" stroke="rgb(44,142,73)" stroke-width="1" opacity="1" d="M 232.5 27 L 231.5 29 L 232.5 27 Z " /><path fill="rgb(44,142,73)" stroke="rgb(44,142,73)" stroke-width="1" opacity="1" d="M 83.5 227 L 82.5 229 L 81 228.5 L 83.5 227 Z " /><path fill="rgb(44,142,73)" stroke="rgb(44,142,73)" stroke-width="1" opacity="1" d="M 46.5 229 L 47 282.5 L 46 282.5 L 46.5 229 Z " /><path fill="rgb(44,142,73)" stroke="rgb(44,142,73)" stroke-width="1" opacity="1" d="M 465.5 229 L 466 282.5 L 465 282.5 L 465.5 229 Z " /><path fill="rgb(44,142,73)" stroke="rgb(44,142,73)" stroke-width="1" opacity="1" d="M 251.5 235 Q 268.7 233.8 274 244.5 Q 278.3 249.7 277 260.5 Q 274.5 269.5 267.5 274 Q 262.3 278.3 251.5 277 Q 242.4 274.5 238 267.5 Q 233.6 262.3 235 251.5 Q 237.4 242.4 244.5 238 L 251.5 235 Z " /><path fill="rgb(44,142,73)" stroke="rgb(44,142,73)" stroke-width="1" opacity="1" d="M 280.5 483 L 279.5 485 L 280.5 483 Z " /><path fill="rgb(44,142,73)" stroke="rgb(44,142,73)" stroke-width="1" opacity="1" d="M 238.5 487 L 239.5 489 L 238.5 487 Z " /><path fill="rgb(44,142,73)" stroke="rgb(44,142,73)" stroke-width="1" opacity="1" d="M 251.5 493 L 254 493.5 L 251.5 494 L 251.5 493 Z " /><path fill="rgb(44,142,73)" stroke="rgb(44,142,73)" stroke-width="1" opacity="1" d="M 258.5 493 L 261 493.5 L 258.5 494 L 258.5 493 Z " /><path fill="rgb(0,0,0)" stroke="rgb(0,0,0)" stroke-width="1" opacity="0" d="M 0 0 L 248 0.5 L 238.5 3 L 213.5 17 L 52.5 110 L 40 119.5 L 31 133.5 L 28 146.5 L 28 366.5 Q 31.2 385.8 43.5 396 L 234.5 507 L 248 511.5 L 0 512 L 0 0 Z " /><path fill="rgb(0,0,0)" stroke="rgb(0,0,0)" stroke-width="1" opacity="0" d="M 264.5 0 L 512 0 L 512 512 L 264 511.5 L 273.5 509 L 298.5 495 L 459.5 402 L 473 391.5 Q 481.4 382.4 484 367.5 L 484 145.5 Q 481 127 469.5 117 L 459.5 110 L 277.5 5 L 264.5 1 L 264.5 0 Z " /><path fill="rgb(15,58,154)" stroke="rgb(15,58,154)" stroke-width="1" opacity="1" d="M 205.5 43 L 204.5 45 L 205.5 43 Z " /><path fill="rgb(15,58,154)" stroke="rgb(15,58,154)" stroke-width="1" opacity="1" d="M 198.5 47 L 197.5 49 L 198.5 47 Z " /><path fill="rgb(15,58,154)" stroke="rgb(15,58,154)" stroke-width="1" opacity="1" d="M 193.5 50 L 192.5 52 L 193.5 50 Z " /><path fill="rgb(15,58,154)" stroke="rgb(15,58,154)" stroke-width="1" opacity="1" d="M 186.5 54 L 185.5 56 L 186.5 54 Z " /><path fill="rgb(15,58,154)" stroke="rgb(15,58,154)" stroke-width="1" opacity="1" d="M 179.5 58 L 178.5 60 L 179.5 58 Z " /><path fill="rgb(15,58,154)" stroke="rgb(15,58,154)" stroke-width="1" opacity="1" d="M 174.5 61 L 173.5 63 L 174.5 61 Z " /><path fill="rgb(15,58,154)" stroke="rgb(15,58,154)" stroke-width="1" opacity="1" d="M 167.5 65 L 166.5 67 L 167.5 65 Z " /><path fill="rgb(15,58,154)" stroke="rgb(15,58,154)" stroke-width="1" opacity="1" d="M 160.5 69 L 159.5 71 L 160.5 69 Z " /><path fill="rgb(15,58,154)" stroke="rgb(15,58,154)" stroke-width="1" opacity="1" d="M 153.5 73 L 152.5 75 L 153.5 73 Z " /><path fill="rgb(15,58,154)" stroke="rgb(15,58,154)" stroke-width="1" opacity="1" d="M 148.5 76 L 147.5 78 L 148.5 76 Z " /><path fill="rgb(15,58,154)" stroke="rgb(15,58,154)" stroke-width="1" opacity="1" d="M 141.5 80 L 140.5 82 L 141.5 80 Z " /><path fill="rgb(15,58,154)" stroke="rgb(15,58,154)" stroke-width="1" opacity="1" d="M 134.5 84 L 133.5 86 L 134.5 84 Z " /><path fill="rgb(15,58,154)" stroke="rgb(15,58,154)" stroke-width="1" opacity="1" d="M 129.5 87 L 128.5 89 L 129.5 87 Z " /><path fill="rgb(15,58,154)" stroke="rgb(15,58,154)" stroke-width="1" opacity="1" d="M 122.5 91 L 121.5 93 L 122.5 91 Z " /><path fill="rgb(15,58,154)" stroke="rgb(15,58,154)" stroke-width="1" opacity="1" d="M 115.5 95 L 114.5 97 L 115.5 95 Z " /><path fill="rgb(15,58,154)" stroke="rgb(15,58,154)" stroke-width="1" opacity="1" d="M 108.5 99 L 107.5 101 L 108.5 99 Z " /><path fill="rgb(15,58,154)" stroke="rgb(15,58,154)" stroke-width="1" opacity="1" d="M 103.5 102 L 102.5 104 L 103.5 102 Z " /><path fill="rgb(15,58,154)" stroke="rgb(15,58,154)" stroke-width="1" opacity="1" d="M 96.5 106 L 95.5 108 L 96.5 106 Z " /><path fill="rgb(15,58,154)" stroke="rgb(15,58,154)" stroke-width="1" opacity="1" d="M 89.5 110 L 88.5 112 L 89.5 110 Z " /><path fill="rgb(15,58,154)" stroke="rgb(15,58,154)" stroke-width="1" opacity="1" d="M 84.5 113 L 83.5 115 L 81.5 116 L 82.5 114 L 84.5 113 Z " /><path fill="rgb(15,58,154)" stroke="rgb(15,58,154)" stroke-width="1" opacity="1" d="M 77.5 117 L 76.5 119 L 77.5 117 Z " /><path fill="rgb(15,58,154)" stroke="rgb(15,58,154)" stroke-width="1" opacity="1" d="M 70.5 121 L 69.5 123 L 70.5 121 Z " /><path fill="rgb(15,58,154)" stroke="rgb(15,58,154)" stroke-width="1" opacity="1" d="M 63.5 125 L 62.5 127 L 63.5 125 Z " /><path fill="rgb(15,58,154)" stroke="rgb(15,58,154)" stroke-width="1" opacity="1" d="M 58.5 128 L 56.5 131 L 58.5 128 Z " /><path fill="rgb(15,58,154)" stroke="rgb(15,58,154)" stroke-width="1" opacity="1" d="M 52.5 134 L 51.5 136 L 52.5 134 Z " /><path fill="rgb(15,58,154)" stroke="rgb(15,58,154)" stroke-width="1" opacity="1" d="M 50.5 137 L 49.5 139 L 50.5 137 Z " /><path fill="rgb(15,58,154)" stroke="rgb(15,58,154)" stroke-width="1" opacity="1" d="M 109.5 211 L 111 211.5 L 108.5 213 L 109.5 211 Z " /><path fill="rgb(15,58,154)" stroke="rgb(15,58,154)" stroke-width="1" opacity="1" d="M 105.5 215 L 105 216.5 L 104.5 218 L 104 216.5 L 105.5 215 Z " /><path fill="rgb(15,58,154)" stroke="rgb(15,58,154)" stroke-width="1" opacity="1" d="M 461.5 375 L 459.5 378 L 461.5 375 Z " /><path fill="rgb(15,58,154)" stroke="rgb(15,58,154)" stroke-width="1" opacity="1" d="M 458.5 379 L 457.5 381 L 458.5 379 Z " /><path fill="rgb(15,58,154)" stroke="rgb(15,58,154)" stroke-width="1" opacity="1" d="M 454.5 382 L 453.5 384 L 454.5 382 Z " /><path fill="rgb(15,58,154)" stroke="rgb(15,58,154)" stroke-width="1" opacity="1" d="M 449.5 385 L 448.5 387 L 449.5 385 Z " /><path fill="rgb(15,58,154)" stroke="rgb(15,58,154)" stroke-width="1" opacity="1" d="M 442.5 389 L 441.5 391 L 442.5 389 Z " /><path fill="rgb(15,58,154)" stroke="rgb(15,58,154)" stroke-width="1" opacity="1" d="M 435.5 393 L 434.5 395 L 435.5 393 Z " /><path fill="rgb(15,58,154)" stroke="rgb(15,58,154)" stroke-width="1" opacity="1" d="M 430.5 396 L 429.5 398 L 427.5 399 L 428.5 397 L 430.5 396 Z " /><path fill="rgb(15,58,154)" stroke="rgb(15,58,154)" stroke-width="1" opacity="1" d="M 423.5 400 L 422.5 402 L 423.5 400 Z " /><path fill="rgb(15,58,154)" stroke="rgb(15,58,154)" stroke-width="1" opacity="1" d="M 416.5 404 L 415.5 406 L 416.5 404 Z " /><path fill="rgb(15,58,154)" stroke="rgb(15,58,154)" stroke-width="1" opacity="1" d="M 409.5 408 L 408.5 410 L 409.5 408 Z " /><path fill="rgb(15,58,154)" stroke="rgb(15,58,154)" stroke-width="1" opacity="1" d="M 404.5 411 L 403.5 413 L 404.5 411 Z " /><path fill="rgb(15,58,154)" stroke="rgb(15,58,154)" stroke-width="1" opacity="1" d="M 397.5 415 L 396.5 417 L 397.5 415 Z " /><path fill="rgb(15,58,154)" stroke="rgb(15,58,154)" stroke-width="1" opacity="1" d="M 390.5 419 L 389.5 421 L 390.5 419 Z " /><path fill="rgb(15,58,154)" stroke="rgb(15,58,154)" stroke-width="1" opacity="1" d="M 383.5 423 L 382.5 425 L 383.5 423 Z " /><path fill="rgb(15,58,154)" stroke="rgb(15,58,154)" stroke-width="1" opacity="1" d="M 378.5 426 L 377.5 428 L 378.5 426 Z " /><path fill="rgb(15,58,154)" stroke="rgb(15,58,154)" stroke-width="1" opacity="1" d="M 371.5 430 L 370.5 432 L 371.5 430 Z " /><path fill="rgb(15,58,154)" stroke="rgb(15,58,154)" stroke-width="1" opacity="1" d="M 364.5 434 L 363.5 436 L 364.5 434 Z " /><path fill="rgb(15,58,154)" stroke="rgb(15,58,154)" stroke-width="1" opacity="1" d="M 359.5 437 L 358.5 439 L 359.5 437 Z " /><path fill="rgb(15,58,154)" stroke="rgb(15,58,154)" stroke-width="1" opacity="1" d="M 352.5 441 L 351.5 443 L 352.5 441 Z " /><path fill="rgb(15,58,154)" stroke="rgb(15,58,154)" stroke-width="1" opacity="1" d="M 345.5 445 L 344.5 447 L 345.5 445 Z " /><path fill="rgb(15,58,154)" stroke="rgb(15,58,154)" stroke-width="1" opacity="1" d="M 338.5 449 L 337.5 451 L 338.5 449 Z " /><path fill="rgb(15,58,154)" stroke="rgb(15,58,154)" stroke-width="1" opacity="1" d="M 333.5 452 L 332.5 454 L 333.5 452 Z " /><path fill="rgb(15,58,154)" stroke="rgb(15,58,154)" stroke-width="1" opacity="1" d="M 326.5 456 L 325.5 458 L 326.5 456 Z " /><path fill="rgb(15,58,154)" stroke="rgb(15,58,154)" stroke-width="1" opacity="1" d="M 319.5 460 L 318.5 462 L 319.5 460 Z " /><path fill="rgb(15,58,154)" stroke="rgb(15,58,154)" stroke-width="1" opacity="1" d="M 314.5 463 L 313.5 465 L 314.5 463 Z " /><path fill="rgb(15,58,154)" stroke="rgb(15,58,154)" stroke-width="1" opacity="1" d="M 307.5 467 L 306.5 469 L 307.5 467 Z " /><path fill="rgb(16,59,155)" stroke="rgb(16,59,155)" stroke-width="1" opacity="1" d="M 210.5 41 L 211 211 L 109.5 211 L 106 213 L 104 216.5 L 104 220 L 88.5 220 L 88 216.5 L 86 213 L 82.5 211 L 47 211 L 47 145.5 Q 49.1 136.1 55.5 131 L 210.5 41 Z " /><path fill="rgb(16,59,155)" stroke="rgb(16,59,155)" stroke-width="1" opacity="1" d="M 301 301 L 465 301 L 465 366.5 Q 462.6 376.6 455.5 382 L 301.5 471 L 301 301 Z " /><path fill="rgb(236,30,51)" stroke="rgb(236,30,51)" stroke-width="1" opacity="1" d="M 311.5 46 L 312.5 48 L 311.5 46 Z " /><path fill="rgb(236,30,51)" stroke="rgb(236,30,51)" stroke-width="1" opacity="1" d="M 337.5 61 L 338.5 63 L 337.5 61 Z " /><path fill="rgb(236,30,51)" stroke="rgb(236,30,51)" stroke-width="1" opacity="1" d="M 363.5 76 L 364.5 78 L 363.5 76 Z " /><path fill="rgb(236,30,51)" stroke="rgb(236,30,51)" stroke-width="1" opacity="1" d="M 389.5 91 L 390.5 93 L 389.5 91 Z " /><path fill="rgb(236,30,51)" stroke="rgb(236,30,51)" stroke-width="1" opacity="1" d="M 415.5 106 L 416.5 108 L 415.5 106 Z " /><path fill="rgb(236,30,51)" stroke="rgb(236,30,51)" stroke-width="1" opacity="1" d="M 441.5 121 L 442.5 123 L 441.5 121 Z " /><path fill="rgb(236,30,51)" stroke="rgb(236,30,51)" stroke-width="1" opacity="1" d="M 453.5 128 L 454.5 130 L 453.5 128 Z " /><path fill="rgb(236,30,51)" stroke="rgb(236,30,51)" stroke-width="1" opacity="1" d="M 464.5 144 L 465 146.5 L 464 146.5 L 464.5 144 Z " /><path fill="rgb(236,30,51)" stroke="rgb(236,30,51)" stroke-width="1" opacity="1" d="M 51.5 376 L 52.5 378 L 51.5 376 Z " /><path fill="rgb(236,30,51)" stroke="rgb(236,30,51)" stroke-width="1" opacity="1" d="M 57.5 382 L 58.5 384 L 57.5 382 Z " /><path fill="rgb(236,30,51)" stroke="rgb(236,30,51)" stroke-width="1" opacity="1" d="M 69.5 389 L 70.5 391 L 69.5 389 Z " /><path fill="rgb(236,30,51)" stroke="rgb(236,30,51)" stroke-width="1" opacity="1" d="M 95.5 404 L 96.5 406 L 95.5 404 Z " /><path fill="rgb(236,30,51)" stroke="rgb(236,30,51)" stroke-width="1" opacity="1" d="M 121.5 419 L 122.5 421 L 121.5 419 Z " /><path fill="rgb(236,30,51)" stroke="rgb(236,30,51)" stroke-width="1" opacity="1" d="M 147.5 434 L 148.5 436 L 147.5 434 Z " /><path fill="rgb(236,30,51)" stroke="rgb(236,30,51)" stroke-width="1" opacity="1" d="M 173.5 449 L 174.5 451 L 173.5 449 Z " /><path fill="rgb(236,30,51)" stroke="rgb(236,30,51)" stroke-width="1" opacity="1" d="M 199.5 464 L 200.5 466 L 199.5 464 Z " /><path fill="rgb(237,31,52)" stroke="rgb(237,31,52)" stroke-width="1" opacity="1" d="M 301.5 41 L 447.5 125 L 460 134.5 L 463 139.5 L 465 147.5 L 465 211 L 301 211 L 301.5 41 Z " /><path fill="rgb(237,31,52)" stroke="rgb(237,31,52)" stroke-width="1" opacity="1" d="M 47 301 L 211 301 L 211 470.5 L 209.5 470 L 64.5 387 L 53 378.5 L 47 366.5 L 47 301 Z " /><path fill="rgb(3,11,27)" stroke="rgb(3,11,27)" stroke-width="1" opacity="1" d="M 210.5 40 L 212 41.5 L 212 210.5 L 210.5 212 L 111.5 212 L 111.5 211 L 211 211 L 211 41.5 L 210.5 40 Z " /><path fill="rgb(3,11,27)" stroke="rgb(3,11,27)" stroke-width="1" opacity="1" d="M 204.5 43 L 203.5 45 L 204.5 43 Z " /><path fill="rgb(3,11,27)" stroke="rgb(3,11,27)" stroke-width="1" opacity="1" d="M 192.5 50 L 191.5 52 L 192.5 50 Z " /><path fill="rgb(3,11,27)" stroke="rgb(3,11,27)" stroke-width="1" opacity="1" d="M 185.5 54 L 184.5 56 L 185.5 54 Z " /><path fill="rgb(3,11,27)" stroke="rgb(3,11,27)" stroke-width="1" opacity="1" d="M 178.5 58 L 177.5 60 L 178.5 58 Z " /><path fill="rgb(3,11,27)" stroke="rgb(3,11,27)" stroke-width="1" opacity="1" d="M 173.5 61 L 172.5 63 L 173.5 61 Z " /><path fill="rgb(3,11,27)" stroke="rgb(3,11,27)" stroke-width="1" opacity="1" d="M 166.5 65 L 165.5 67 L 166.5 65 Z " /><path fill="rgb(3,11,27)" stroke="rgb(3,11,27)" stroke-width="1" opacity="1" d="M 159.5 69 L 158.5 71 L 159.5 69 Z " /><path fill="rgb(3,11,27)" stroke="rgb(3,11,27)" stroke-width="1" opacity="1" d="M 147.5 76 L 146.5 78 L 147.5 76 Z " /><path fill="rgb(3,11,27)" stroke="rgb(3,11,27)" stroke-width="1" opacity="1" d="M 140.5 80 L 139.5 82 L 140.5 80 Z " /><path fill="rgb(3,11,27)" stroke="rgb(3,11,27)" stroke-width="1" opacity="1" d="M 133.5 84 L 132.5 86 L 133.5 84 Z " /><path fill="rgb(3,11,27)" stroke="rgb(3,11,27)" stroke-width="1" opacity="1" d="M 128.5 87 L 127.5 89 L 128.5 87 Z " /><path fill="rgb(3,11,27)" stroke="rgb(3,11,27)" stroke-width="1" opacity="1" d="M 121.5 91 L 120.5 93 L 121.5 91 Z " /><path fill="rgb(3,11,27)" stroke="rgb(3,11,27)" stroke-width="1" opacity="1" d="M 114.5 95 L 113.5 97 L 114.5 95 Z " /><path fill="rgb(3,11,27)" stroke="rgb(3,11,27)" stroke-width="1" opacity="1" d="M 102.5 102 L 101.5 104 L 102.5 102 Z " /><path fill="rgb(3,11,27)" stroke="rgb(3,11,27)" stroke-width="1" opacity="1" d="M 95.5 106 L 94.5 108 L 95.5 106 Z " /><path fill="rgb(3,11,27)" stroke="rgb(3,11,27)" stroke-width="1" opacity="1" d="M 88.5 110 L 87.5 112 L 88.5 110 Z " /><path fill="rgb(3,11,27)" stroke="rgb(3,11,27)" stroke-width="1" opacity="1" d="M 76.5 117 L 75.5 119 L 76.5 117 Z " /><path fill="rgb(3,11,27)" stroke="rgb(3,11,27)" stroke-width="1" opacity="1" d="M 69.5 121 L 68.5 123 L 69.5 121 Z " /><path fill="rgb(3,11,27)" stroke="rgb(3,11,27)" stroke-width="1" opacity="1" d="M 57.5 128 L 55.5 131 L 57.5 128 Z " /><path fill="rgb(3,11,27)" stroke="rgb(3,11,27)" stroke-width="1" opacity="1" d="M 53.5 132 L 51.5 135 L 53.5 132 Z " /><path fill="rgb(3,11,27)" stroke="rgb(3,11,27)" stroke-width="1" opacity="1" d="M 50.5 136 L 49.5 138 L 50.5 136 Z " /><path fill="rgb(3,11,27)" stroke="rgb(3,11,27)" stroke-width="1" opacity="1" d="M 46.5 146 L 47 211 L 81 211.5 L 47.5 212 L 46 210.5 L 46.5 146 Z " /><path fill="rgb(3,11,27)" stroke="rgb(3,11,27)" stroke-width="1" opacity="1" d="M 83.5 212 L 86.5 216 L 83.5 212 Z " /><path fill="rgb(3,11,27)" stroke="rgb(3,11,27)" stroke-width="1" opacity="1" d="M 107.5 213 L 106.5 215 L 107.5 213 Z " /><path fill="rgb(3,11,27)" stroke="rgb(3,11,27)" stroke-width="1" opacity="1" d="M 87.5 218 L 88 220.5 L 87 220.5 L 87.5 218 Z " /><path fill="rgb(3,11,27)" stroke="rgb(3,11,27)" stroke-width="1" opacity="1" d="M 85.5 225 L 84.5 227 L 85.5 225 Z " /><path fill="rgb(3,11,27)" stroke="rgb(3,11,27)" stroke-width="1" opacity="1" d="M 106.5 225 L 107.5 227 L 106.5 225 Z " /><path fill="rgb(3,11,27)" stroke="rgb(3,11,27)" stroke-width="1" opacity="1" d="M 301.5 300 L 464.5 300 L 466 301.5 L 465.5 366 L 465 301 L 301 301 L 301 470.5 L 301.5 472 L 300 470.5 L 300 301.5 L 301.5 300 Z " /><path fill="rgb(3,11,27)" stroke="rgb(3,11,27)" stroke-width="1" opacity="1" d="M 460.5 377 L 459.5 379 L 460.5 377 Z " /><path fill="rgb(3,11,27)" stroke="rgb(3,11,27)" stroke-width="1" opacity="1" d="M 456.5 381 L 454.5 384 L 456.5 381 Z " /><path fill="rgb(3,11,27)" stroke="rgb(3,11,27)" stroke-width="1" opacity="1" d="M 443.5 389 L 442.5 391 L 443.5 389 Z " /><path fill="rgb(3,11,27)" stroke="rgb(3,11,27)" stroke-width="1" opacity="1" d="M 436.5 393 L 435.5 395 L 436.5 393 Z " /><path fill="rgb(3,11,27)" stroke="rgb(3,11,27)" stroke-width="1" opacity="1" d="M 424.5 400 L 423.5 402 L 424.5 400 Z " /><path fill="rgb(3,11,27)" stroke="rgb(3,11,27)" stroke-width="1" opacity="1" d="M 417.5 404 L 416.5 406 L 417.5 404 Z " /><path fill="rgb(3,11,27)" stroke="rgb(3,11,27)" stroke-width="1" opacity="1" d="M 410.5 408 L 409.5 410 L 410.5 408 Z " /><path fill="rgb(3,11,27)" stroke="rgb(3,11,27)" stroke-width="1" opacity="1" d="M 398.5 415 L 397.5 417 L 398.5 415 Z " /><path fill="rgb(3,11,27)" stroke="rgb(3,11,27)" stroke-width="1" opacity="1" d="M 391.5 419 L 390.5 421 L 391.5 419 Z " /><path fill="rgb(3,11,27)" stroke="rgb(3,11,27)" stroke-width="1" opacity="1" d="M 384.5 423 L 383.5 425 L 384.5 423 Z " /><path fill="rgb(3,11,27)" stroke="rgb(3,11,27)" stroke-width="1" opacity="1" d="M 379.5 426 L 378.5 428 L 379.5 426 Z " /><path fill="rgb(3,11,27)" stroke="rgb(3,11,27)" stroke-width="1" opacity="1" d="M 372.5 430 L 371.5 432 L 372.5 430 Z " /><path fill="rgb(3,11,27)" stroke="rgb(3,11,27)" stroke-width="1" opacity="1" d="M 365.5 434 L 364.5 436 L 365.5 434 Z " /><path fill="rgb(3,11,27)" stroke="rgb(3,11,27)" stroke-width="1" opacity="1" d="M 353.5 441 L 352.5 443 L 353.5 441 Z " /><path fill="rgb(3,11,27)" stroke="rgb(3,11,27)" stroke-width="1" opacity="1" d="M 346.5 445 L 345.5 447 L 346.5 445 Z " /><path fill="rgb(3,11,27)" stroke="rgb(3,11,27)" stroke-width="1" opacity="1" d="M 339.5 449 L 338.5 451 L 339.5 449 Z " /><path fill="rgb(3,11,27)" stroke="rgb(3,11,27)" stroke-width="1" opacity="1" d="M 334.5 452 L 333.5 454 L 334.5 452 Z " /><path fill="rgb(3,11,27)" stroke="rgb(3,11,27)" stroke-width="1" opacity="1" d="M 327.5 456 L 326.5 458 L 327.5 456 Z " /><path fill="rgb(3,11,27)" stroke="rgb(3,11,27)" stroke-width="1" opacity="1" d="M 320.5 460 L 319.5 462 L 320.5 460 Z " /><path fill="rgb(3,11,27)" stroke="rgb(3,11,27)" stroke-width="1" opacity="1" d="M 308.5 467 L 307.5 469 L 308.5 467 Z " /><path fill="rgb(0,0,0)" stroke="rgb(0,0,0)" stroke-width="1" opacity="0.996078431372549" d="M 251.5 0 L 266.5 1 L 276.5 5 L 453.5 107 Q 465.7 112.8 474 122.5 Q 480.6 130.4 483 142.5 L 483 370.5 Q 479.1 387.1 467.5 396 L 278.5 506 Q 268.8 512.8 251.5 512 L 239.5 509 L 214.5 495 L 58.5 405 L 45.5 397 L 38 389.5 Q 31.8 381.8 29 370.5 L 29 141.5 Q 32.9 124.9 44.5 116 L 233.5 6 L 239.5 3 L 251.5 0 Z M 250 18 L 231 28 L 229 30 L 229 221 L 227 226 L 221 229 L 113 229 L 110 228 Q 103 226 105 217 L 110 212 L 211 212 L 212 211 L 212 42 L 211 40 L 58 128 Q 48 134 46 147 L 46 211 L 48 212 L 83 212 Q 89 214 87 224 L 80 229 L 46 229 L 46 283 L 221 283 L 226 285 L 229 292 L 229 483 L 250 494 L 263 494 L 282 484 L 283 483 L 283 292 L 285 287 L 292 283 L 466 283 L 466 283 L 466 229 L 292 229 L 287 227 L 283 221 L 283 30 L 263 18 L 250 18 Z M 302 40 L 301 211 L 466 211 L 466 149 L 464 140 L 461 135 L 448 124 L 302 40 Z M 302 300 L 300 302 L 300 471 L 302 472 L 455 384 Q 464 378 466 366 L 466 302 L 465 300 L 302 300 Z M 46 301 L 46 365 L 51 378 L 65 388 L 210 471 L 211 472 L 211 301 L 46 301 Z " /></svg>